<svg aria-hidden="true" style="position: absolute; width: 0; height: 0; overflow: hidden;" version="1.1"
    xmlns="http://www.w3.org/2000/svg" xmlns:xlink="http://www.w3.org/1999/xlink">
    <defs>
        <symbol id="icon-arrow-left" viewBox="0 0 32 32">
            <path
                d="M12.586 27.414l-10-10c-0.781-0.781-0.781-2.047 0-2.828l10-10c0.781-0.781 2.047-0.781 2.828 0s0.781 2.047 0 2.828l-6.586 6.586h19.172c1.105 0 2 0.895 2 2s-0.895 2-2 2h-19.172l6.586 6.586c0.39 0.39 0.586 0.902 0.586 1.414s-0.195 1.024-0.586 1.414c-0.781 0.781-2.047 0.781-2.828 0z">
            </path>
        </symbol>
        <symbol id="icon-arrow-right" viewBox="0 0 32 32">
            <path
                d="M19.414 27.414l10-10c0.781-0.781 0.781-2.047 0-2.828l-10-10c-0.781-0.781-2.047-0.781-2.828 0s-0.781 2.047 0 2.828l6.586 6.586h-19.172c-1.105 0-2 0.895-2 2s0.895 2 2 2h19.172l-6.586 6.586c-0.39 0.39-0.586 0.902-0.586 1.414s0.195 1.024 0.586 1.414c0.781 0.781 2.047 0.781 2.828 0z">
            </path>
        </symbol>
        <symbol id="icon-circle-down" viewBox="0 0 32 32">
            <path
                d="M32 16c0-8.837-7.163-16-16-16s-16 7.163-16 16 7.163 16 16 16 16-7.163 16-16zM3 16c0-7.18 5.82-13 13-13s13 5.82 13 13-5.82 13-13 13-13-5.82-13-13z">
            </path>
            <path d="M9.914 11.086l-2.829 2.829 8.914 8.914 8.914-8.914-2.828-2.828-6.086 6.086z"></path>
        </symbol>
        <symbol id="icon-circle-up" viewBox="0 0 32 32">
            <path
                d="M0 16c0 8.837 7.163 16 16 16s16-7.163 16-16-7.163-16-16-16-16 7.163-16 16zM29 16c0 7.18-5.82 13-13 13s-13-5.82-13-13 5.82-13 13-13 13 5.82 13 13z">
            </path>
            <path d="M22.086 20.914l2.829-2.829-8.914-8.914-8.914 8.914 2.828 2.828 6.086-6.086z"></path>
        </symbol>
        <symbol id="icon-facebook" viewBox="0 0 32 32">
            <path
                d="M12.135 31.588v-10.64h-3.299v-4.889h3.299v-2.107c0-5.447 2.464-7.971 7.811-7.971 0.535 0 1.273 0.056 1.957 0.137 0.579 0.060 1.096 0.152 1.601 0.277l-0.079-0.017v4.433c-0.252-0.025-0.555-0.042-0.86-0.048l-0.010-0c-0.276-0.008-0.601-0.012-0.927-0.012-0.018 0-0.035 0-0.053 0h0.003c-0.943 0-1.679 0.128-2.233 0.412-0.377 0.192-0.684 0.475-0.9 0.82l-0.006 0.009c-0.344 0.56-0.499 1.327-0.499 2.336v1.729h5.225l-0.897 4.889h-4.328v10.993c7.923-0.957 14.061-7.703 14.061-15.883 0-8.836-7.164-16-16-16s-16 7.164-16 16c0 7.504 5.165 13.8 12.135 15.529z">
            </path>
        </symbol>
        <symbol id="icon-instagram" viewBox="0 0 32 32">
            <path
                d="M9.373 0.112c-1.702 0.080-2.865 0.352-3.881 0.751-1.052 0.41-1.943 0.96-2.83 1.85s-1.433 1.782-1.84 2.836c-0.394 1.018-0.661 2.182-0.736 3.885s-0.092 2.251-0.083 6.596c0.008 4.345 0.027 4.889 0.11 6.596 0.081 1.702 0.352 2.864 0.751 3.881 0.411 1.052 0.96 1.943 1.851 2.83s1.782 1.432 2.838 1.84c1.018 0.393 2.181 0.661 3.885 0.736s2.251 0.092 6.595 0.084c4.344-0.008 4.891-0.028 6.597-0.109s2.863-0.354 3.88-0.751c1.052-0.411 1.944-0.96 2.83-1.851s1.433-1.784 1.839-2.838c0.394-1.018 0.662-2.181 0.736-3.883 0.075-1.708 0.092-2.253 0.084-6.597s-0.028-4.889-0.109-6.595-0.352-2.865-0.751-3.882c-0.411-1.052-0.96-1.942-1.85-2.83s-1.784-1.434-2.837-1.839c-1.018-0.394-2.181-0.662-3.885-0.736s-2.251-0.093-6.597-0.084c-4.345 0.008-4.889 0.027-6.596 0.11zM9.56 29.036c-1.56-0.068-2.407-0.327-2.972-0.544-0.747-0.288-1.28-0.636-1.843-1.193s-0.908-1.091-1.2-1.837c-0.219-0.565-0.483-1.411-0.556-2.971-0.079-1.686-0.096-2.192-0.105-6.464s0.007-4.777 0.081-6.464c0.067-1.559 0.327-2.407 0.544-2.971 0.288-0.748 0.635-1.28 1.193-1.842s1.091-0.909 1.838-1.2c0.564-0.22 1.41-0.482 2.969-0.556 1.687-0.080 2.193-0.096 6.464-0.105s4.778 0.007 6.466 0.081c1.559 0.068 2.407 0.326 2.971 0.544 0.748 0.288 1.28 0.634 1.842 1.193s0.909 1.090 1.201 1.838c0.22 0.562 0.482 1.408 0.556 2.968 0.080 1.687 0.099 2.193 0.106 6.464s-0.007 4.778-0.081 6.464c-0.068 1.56-0.327 2.407-0.544 2.973-0.288 0.747-0.635 1.28-1.194 1.842s-1.091 0.908-1.838 1.2c-0.563 0.22-1.41 0.482-2.968 0.557-1.687 0.079-2.193 0.096-6.466 0.105s-4.777-0.008-6.464-0.081zM22.604 7.449c0.002 1.059 0.861 1.917 1.92 1.917 1.060 0 1.92-0.86 1.92-1.92s-0.86-1.92-1.92-1.92c-0.001 0-0.003 0-0.004 0h0c-1.059 0.002-1.916 0.861-1.916 1.92 0 0.001 0 0.002 0 0.003v-0zM7.785 16.016c0.009 4.538 3.694 8.208 8.231 8.199s8.209-3.693 8.201-8.231c-0.009-4.538-3.695-8.209-8.232-8.2s-8.208 3.695-8.199 8.232zM10.667 16.010c0-0.003 0-0.007 0-0.011 0-2.946 2.388-5.333 5.333-5.333s5.333 2.388 5.333 5.333c0 2.942-2.382 5.327-5.322 5.333h-0.001c-0.003 0-0.007 0-0.011 0-2.942 0-5.327-2.382-5.333-5.322v-0.001z">
            </path>
        </symbol>
        <symbol id="icon-mail" viewBox="0 0 32 32">
            <path
                d="M16 0c-8.837 0-16 7.163-16 16s7.163 16 16 16 16-7.163 16-16-7.163-16-16-16zM8 8h16c0.286 0 0.563 0.061 0.817 0.177l-8.817 10.286-8.817-10.287c0.254-0.116 0.531-0.177 0.817-0.177zM6 22v-12c0-0.042 0.002-0.084 0.004-0.125l5.864 6.842-5.8 5.8c-0.045-0.167-0.069-0.34-0.069-0.517zM24 24h-16c-0.177 0-0.35-0.024-0.517-0.069l5.691-5.691 2.826 3.297 2.826-3.297 5.691 5.691c-0.167 0.045-0.34 0.069-0.517 0.069zM26 22c0 0.177-0.024 0.35-0.069 0.517l-5.8-5.8 5.865-6.842c0.003 0.041 0.004 0.083 0.004 0.125v12z">
            </path>
        </symbol>
        <symbol id="icon-telegram" viewBox="0 0 32 32">
            <path
                d="M16 0c-8.838 0-16 7.162-16 16s7.162 16 16 16 16-7.163 16-16-7.163-16-16-16zM23.863 10.969l-2.625 12.369c-0.181 0.881-0.712 1.087-1.45 0.681l-4-2.956-1.919 1.869c-0.225 0.219-0.4 0.4-0.8 0.4-0.519 0-0.431-0.194-0.606-0.688l-1.363-4.475-3.956-1.231c-0.856-0.262-0.862-0.85 0.194-1.269l15.412-5.95c0.7-0.319 1.381 0.169 1.113 1.25z">
            </path>
        </symbol>
        <symbol id="icon-twitter" viewBox="0 0 32 32">
            <path
                d="M32 7.075c-1.175 0.525-2.444 0.875-3.769 1.031 1.356-0.813 2.394-2.1 2.887-3.631-1.269 0.75-2.675 1.3-4.169 1.594-1.2-1.275-2.906-2.069-4.794-2.069-3.625 0-6.563 2.938-6.563 6.563 0 0.512 0.056 1.012 0.169 1.494-5.456-0.275-10.294-2.888-13.531-6.862-0.563 0.969-0.887 2.1-0.887 3.3 0 2.275 1.156 4.287 2.919 5.463-1.075-0.031-2.087-0.331-2.975-0.819 0 0.025 0 0.056 0 0.081 0 3.181 2.263 5.838 5.269 6.437-0.55 0.15-1.131 0.231-1.731 0.231-0.425 0-0.831-0.044-1.237-0.119 0.838 2.606 3.263 4.506 6.131 4.563-2.25 1.762-5.075 2.813-8.156 2.813-0.531 0-1.050-0.031-1.569-0.094 2.913 1.869 6.362 2.95 10.069 2.95 12.075 0 18.681-10.006 18.681-18.681 0-0.287-0.006-0.569-0.019-0.85 1.281-0.919 2.394-2.075 3.275-3.394z">
            </path>
        </symbol>
        <symbol id="icon-whatsapp" viewBox="0 0 32 32">
            <path
                d="M27.281 4.65c-2.994-3-6.975-4.65-11.219-4.65-8.738 0-15.85 7.112-15.85 15.856 0 2.794 0.731 5.525 2.119 7.925l-2.25 8.219 8.406-2.206c2.319 1.262 4.925 1.931 7.575 1.931h0.006c0 0 0 0 0 0 8.738 0 15.856-7.113 15.856-15.856 0-4.238-1.65-8.219-4.644-11.219zM16.069 29.050v0c-2.369 0-4.688-0.637-6.713-1.837l-0.481-0.288-4.987 1.306 1.331-4.863-0.313-0.5c-1.325-2.094-2.019-4.519-2.019-7.012 0-7.269 5.912-13.181 13.188-13.181 3.519 0 6.831 1.375 9.319 3.862 2.488 2.494 3.856 5.8 3.856 9.325-0.006 7.275-5.919 13.188-13.181 13.188zM23.294 19.175c-0.394-0.2-2.344-1.156-2.706-1.288s-0.625-0.2-0.894 0.2c-0.262 0.394-1.025 1.288-1.256 1.556-0.231 0.262-0.462 0.3-0.856 0.1s-1.675-0.619-3.188-1.969c-1.175-1.050-1.975-2.35-2.206-2.744s-0.025-0.613 0.175-0.806c0.181-0.175 0.394-0.463 0.594-0.694s0.262-0.394 0.394-0.662c0.131-0.262 0.069-0.494-0.031-0.694s-0.894-2.15-1.219-2.944c-0.319-0.775-0.65-0.669-0.894-0.681-0.231-0.012-0.494-0.012-0.756-0.012s-0.694 0.1-1.056 0.494c-0.363 0.394-1.387 1.356-1.387 3.306s1.419 3.831 1.619 4.1c0.2 0.262 2.794 4.269 6.769 5.981 0.944 0.406 1.681 0.65 2.256 0.837 0.95 0.3 1.813 0.256 2.494 0.156 0.762-0.113 2.344-0.956 2.675-1.881s0.331-1.719 0.231-1.881c-0.094-0.175-0.356-0.275-0.756-0.475z">
            </path>
        </symbol>


    </defs>
</svg>